<?xml version="1.0" encoding="UTF-8" standalone="no"?>
<svg
   xmlns:dc="http://purl.org/dc/elements/1.1/"
   xmlns:cc="http://creativecommons.org/ns#"
   xmlns:rdf="http://www.w3.org/1999/02/22-rdf-syntax-ns#"
   xmlns:svg="http://www.w3.org/2000/svg"
   xmlns="http://www.w3.org/2000/svg"
   width="512"
   height="512"
   viewBox="0 0 128 128"
   version="1.1"
   id="svg1097">
  <defs
     id="defs1091" />
  <metadata
     id="metadata1094">
    <rdf:RDF>
      <cc:Work
         rdf:about="">
        <dc:format>image/svg+xml</dc:format>
        <dc:type
           rdf:resource="http://purl.org/dc/dcmitype/StillImage" />
        <dc:title></dc:title>
      </cc:Work>
    </rdf:RDF>
  </metadata>
  <g
     id="layer1">
    <path
       style="fill:#ea5a5a;stroke-width:0.837738"
       class="cls-4"
       d="M 102.08563,96.020156 72.764809,113.24405 a 17.098231,17.098231 0 0 1 -17.41657,-0.0418 L 26.052548,95.835854 A 17.140115,17.140115 0 0 1 17.67517,81.033023 L 17.75894,45.772638 A 17.131738,17.131738 0 0 1 26.220095,31.036829 L 55.540916,13.812942 a 17.098231,17.098231 0 0 1 17.41657,0.04189 l 29.329194,17.391434 a 17.140115,17.140115 0 0 1 8.37738,14.777695 l -0.0838,35.260384 a 17.131738,17.131738 0 0 1 -8.49463,14.735811 z"
       id="path939" />
    <rect
       style="fill:#ffffff;stroke-width:0.837738"
       class="cls-3"
       x="38.467831"
       y="77.003502"
       width="6.9783554"
       height="4.1970663"
       rx="1.4911733"
       id="rect941" />
    <rect
       style="fill:#ffffff;stroke-width:0.837738"
       class="cls-3"
       x="49.215996"
       y="77.003502"
       width="6.9783554"
       height="4.1970663"
       rx="1.4911733"
       id="rect943" />
    <rect
       style="fill:#ffffff;stroke-width:0.837738"
       class="cls-3"
       x="59.955799"
       y="77.003502"
       width="6.9783554"
       height="4.1970663"
       rx="1.4911733"
       id="rect945" />
    <rect
       style="fill:#ffffff;stroke-width:0.837738"
       class="cls-3"
       x="70.703964"
       y="77.003502"
       width="6.9783554"
       height="4.1970663"
       rx="1.4911733"
       id="rect947" />
    <rect
       style="fill:#ffffff;stroke-width:0.837738"
       class="cls-3"
       x="81.443771"
       y="77.003502"
       width="6.9783554"
       height="4.1970663"
       rx="1.4911733"
       id="rect949" />
    <rect
       style="fill:#ffffff;stroke-width:0.837738"
       class="cls-3"
       x="38.467831"
       y="69.455475"
       width="6.9783554"
       height="4.1970663"
       rx="1.4911733"
       id="rect951" />
    <rect
       style="fill:#ffffff;stroke-width:0.837738"
       class="cls-3"
       x="49.215996"
       y="69.455475"
       width="6.9783554"
       height="4.1970663"
       rx="1.4911733"
       id="rect953" />
    <rect
       style="fill:#ffffff;stroke-width:0.837738"
       class="cls-3"
       x="59.955799"
       y="69.455475"
       width="6.9783554"
       height="4.1970663"
       rx="1.4911733"
       id="rect955" />
    <rect
       style="fill:#ffffff;stroke-width:0.837738"
       class="cls-3"
       x="70.703964"
       y="69.455475"
       width="6.9783554"
       height="4.1970663"
       rx="1.4911733"
       id="rect957" />
    <rect
       style="fill:#ffffff;stroke-width:0.837738"
       class="cls-3"
       x="81.443771"
       y="69.455475"
       width="6.9783554"
       height="4.1970663"
       rx="1.4911733"
       id="rect959" />
    <rect
       style="fill:#ffffff;stroke-width:0.837738"
       class="cls-3"
       x="38.467831"
       y="61.89909"
       width="6.9783554"
       height="4.1970663"
       rx="1.4911733"
       id="rect961" />
    <rect
       style="fill:#ffffff;stroke-width:0.837738"
       class="cls-3"
       x="49.215996"
       y="61.89909"
       width="6.9783554"
       height="4.1970663"
       rx="1.4911733"
       id="rect963" />
    <rect
       style="fill:#ffffff;stroke-width:0.837738"
       class="cls-3"
       x="59.955799"
       y="61.89909"
       width="6.9783554"
       height="4.1970663"
       rx="1.4911733"
       id="rect965" />
    <rect
       style="fill:#ffffff;stroke-width:0.837738"
       class="cls-3"
       x="70.703964"
       y="61.89909"
       width="6.9783554"
       height="4.1970663"
       rx="1.4911733"
       id="rect967" />
    <rect
       style="fill:#ffffff;stroke-width:0.837738"
       class="cls-3"
       x="81.443771"
       y="61.89909"
       width="6.9783554"
       height="4.1970663"
       rx="1.4911733"
       id="rect969" />
    <rect
       style="fill:#ffffff;stroke-width:0.837738"
       class="cls-3"
       x="38.467831"
       y="54.351063"
       width="6.9783554"
       height="4.1970663"
       rx="1.4911733"
       id="rect971" />
    <rect
       style="fill:#ffffff;stroke-width:0.837738"
       class="cls-3"
       x="49.215996"
       y="54.351063"
       width="6.9783554"
       height="4.1970663"
       rx="1.4911733"
       id="rect973" />
    <rect
       style="fill:#ffffff;stroke-width:0.837738"
       class="cls-3"
       x="59.955799"
       y="54.351063"
       width="6.9783554"
       height="4.1970663"
       rx="1.4911733"
       id="rect975" />
    <rect
       style="fill:#ffffff;stroke-width:0.837738"
       class="cls-3"
       x="70.703964"
       y="54.351063"
       width="6.9783554"
       height="4.1970663"
       rx="1.4911733"
       id="rect977" />
    <rect
       style="fill:#ffffff;stroke-width:0.837738"
       class="cls-3"
       x="81.443771"
       y="54.351063"
       width="6.9783554"
       height="4.1970663"
       rx="1.4911733"
       id="rect979" />
    <path
       style="fill:#ffffff;stroke-width:0.837738"
       class="cls-3"
       d="m 91.454729,35.661143 h -1.910033 v -2.152987 a 2.0943446,2.0943446 0 0 0 -4.188688,0 v 2.152987 h -2.664006 v -2.152987 a 2.094345,2.094345 0 1 0 -4.188689,0 v 2.152987 h -2.672384 v -2.152987 a 2.0943449,2.0943449 0 0 0 -4.188689,0 v 2.152987 h -2.672383 v -2.152987 a 2.0943457,2.0943457 0 1 0 -4.188691,0 v 2.152987 h -2.664005 v -2.152987 a 2.102722,2.102722 0 0 0 -4.18869,0 v 2.152987 h -2.664005 v -2.152987 a 2.094345,2.094345 0 1 0 -4.188689,0 v 2.152987 h -2.672384 v -2.152987 a 2.094345,2.094345 0 0 0 -4.18869,0 v 2.152987 h -2.672382 v -2.152987 a 2.0943452,2.0943452 0 1 0 -4.18869,0 v 2.152987 h -1.901665 a 6.0065802,6.0065802 0 0 0 -5.998202,5.998203 v 44.400102 a 6.0065802,6.0065802 0 0 0 5.998202,5.998206 h 56.01114 a 6.0065802,6.0065802 0 0 0 5.998201,-5.998206 V 41.659346 a 6.0065802,6.0065802 0 0 0 -6.006578,-5.998203 z m 1.809514,50.398305 a 1.8095138,1.8095138 0 0 1 -1.809514,1.809514 H 35.44359 A 1.8095138,1.8095138 0 0 1 33.634075,86.059448 V 41.659346 a 1.8095138,1.8095138 0 0 1 1.809515,-1.809514 h 1.901664 v 0.393736 a 2.0943452,2.0943452 0 0 0 4.18869,0 v -0.393736 h 2.672383 v 0.393736 a 2.0943447,2.0943447 0 0 0 4.188689,0 v -0.393736 h 2.672383 v 0.393736 a 2.0943448,2.0943448 0 1 0 4.188689,0 v -0.393736 h 2.630496 v 0.393736 a 2.102722,2.102722 0 0 0 4.188691,0 v -0.393736 h 2.664005 v 0.393736 a 2.0943447,2.0943447 0 0 0 4.188689,0 v -0.393736 h 2.672384 v 0.393736 a 2.094345,2.094345 0 0 0 4.188689,0 v -0.393736 h 2.672383 v 0.393736 a 2.094345,2.094345 0 1 0 4.18869,0 v -0.393736 h 2.664006 v 0.393736 a 2.094345,2.094345 0 0 0 4.18869,0 v -0.393736 h 1.910032 a 1.8095138,1.8095138 0 0 1 1.809512,1.809514 z"
       id="path981" />
  </g>
</svg>
